<svg width="43" height="43" viewBox="0 0 43 43" fill="none" xmlns="http://www.w3.org/2000/svg">
<path d="M39.9297 19.4578V23.5562H37.8872V25.5987H41.9722V17.4019H37.8872V19.4578H39.9297Z" fill="#FEFEFE"/>
<path d="M37.8872 31.7397H35.8313V33.7822H37.8872V31.7397Z" fill="#FEFEFE"/>
<path d="M37.8872 25.5986H35.8313V29.6971H37.8872V25.5986Z" fill="#FEFEFE"/>
<path d="M37.8872 13.3169H35.8313V17.4019H37.8872V13.3169Z" fill="#FEFEFE"/>
<path d="M37.8872 9.21826H35.8313V11.2608H37.8872V9.21826Z" fill="#FEFEFE"/>
<path d="M35.8313 33.7822H33.7888V35.8382H35.8313V33.7822Z" fill="#FEFEFE"/>
<path d="M35.8313 29.6973H33.7888V31.7398H35.8313V29.6973Z" fill="#FEFEFE"/>
<path d="M35.8313 11.2607H33.7888V13.3167H35.8313V11.2607Z" fill="#FEFEFE"/>
<path d="M35.8313 7.17578H33.7888V9.21828H35.8313V7.17578Z" fill="#FEFEFE"/>
<path d="M33.7886 35.8379H31.7327V37.8804H33.7886V35.8379Z" fill="#FEFEFE"/>
<path d="M33.7886 17.4019H31.7327V25.5987H33.7886V17.4019Z" fill="#FEFEFE"/>
<path d="M33.7886 5.12012H31.7327V7.17605H33.7886V5.12012Z" fill="#FEFEFE"/>
<path d="M31.7327 33.7822H29.6902V35.8382H31.7327V33.7822Z" fill="#FEFEFE"/>
<path d="M31.7327 25.5986H29.6902V29.6971H31.7327V25.5986Z" fill="#FEFEFE"/>
<path d="M31.7327 13.3169H29.6902V17.4019H31.7327V13.3169Z" fill="#FEFEFE"/>
<path d="M31.7327 7.17578H29.6902V9.21828H31.7327V7.17578Z" fill="#FEFEFE"/>
<path d="M29.6902 35.8379H25.5918V37.8804H29.6902V35.8379Z" fill="#FEFEFE"/>
<path d="M29.6902 29.6973H25.5918V31.7398H29.6902V29.6973Z" fill="#FEFEFE"/>
<path d="M29.6902 11.2607H25.5918V13.3167H29.6902V11.2607Z" fill="#FEFEFE"/>
<path d="M29.6902 5.12012H25.5918V7.17605H29.6902V5.12012Z" fill="#FEFEFE"/>
<path d="M23.5494 39.9363H19.4509V37.8804H17.4084V41.9788H25.5919V37.8804H23.5494V39.9363Z" fill="#FEFEFE"/>
<path d="M25.5919 31.7397H17.4084V33.7822H25.5919V31.7397Z" fill="#FEFEFE"/>
<path d="M19.4509 25.5987H23.5494V23.5562H25.5919V19.4578H23.5494V17.4019H19.4509V19.4578H17.4084V23.5562H19.4509V25.5987Z" fill="#FEFEFE"/>
<path d="M25.5919 9.21826H17.4084V11.2608H25.5919V9.21826Z" fill="#FEFEFE"/>
<path d="M19.4509 3.07742H23.5494V5.11992H25.5919V1.02148H17.4084V5.11992H19.4509V3.07742Z" fill="#FEFEFE"/>
<path d="M17.4085 35.8379H13.3101V37.8804H17.4085V35.8379Z" fill="#FEFEFE"/>
<path d="M17.4085 29.6973H13.3101V31.7398H17.4085V29.6973Z" fill="#FEFEFE"/>
<path d="M17.4085 11.2607H13.3101V13.3167H17.4085V11.2607Z" fill="#FEFEFE"/>
<path d="M17.4085 5.12012H13.3101V7.17605H17.4085V5.12012Z" fill="#FEFEFE"/>
<path d="M13.3098 33.7822H11.2673V35.8382H13.3098V33.7822Z" fill="#FEFEFE"/>
<path d="M13.3098 25.5986H11.2673V29.6971H13.3098V25.5986Z" fill="#FEFEFE"/>
<path d="M13.3098 13.3169H11.2673V17.4019H13.3098V13.3169Z" fill="#FEFEFE"/>
<path d="M13.3098 7.17578H11.2673V9.21828H13.3098V7.17578Z" fill="#FEFEFE"/>
<path d="M11.2674 35.8379H9.21143V37.8804H11.2674V35.8379Z" fill="#FEFEFE"/>
<path d="M11.2674 17.4019H9.21143V25.5987H11.2674V17.4019Z" fill="#FEFEFE"/>
<path d="M11.2674 5.12012H9.21143V7.17605H11.2674V5.12012Z" fill="#FEFEFE"/>
<path d="M9.21145 33.7822H7.16895V35.8382H9.21145V33.7822Z" fill="#FEFEFE"/>
<path d="M9.21145 29.6973H7.16895V31.7398H9.21145V29.6973Z" fill="#FEFEFE"/>
<path d="M9.21145 11.2607H7.16895V13.3167H9.21145V11.2607Z" fill="#FEFEFE"/>
<path d="M9.21145 7.17578H7.16895V9.21828H9.21145V7.17578Z" fill="#FEFEFE"/>
<path d="M7.16896 31.7397H5.12646V33.7822H7.16896V31.7397Z" fill="#FEFEFE"/>
<path d="M7.16896 25.5986H5.12646V29.6971H7.16896V25.5986Z" fill="#FEFEFE"/>
<path d="M7.16896 13.3169H5.12646V17.4019H7.16896V13.3169Z" fill="#FEFEFE"/>
<path d="M7.16896 9.21826H5.12646V11.2608H7.16896V9.21826Z" fill="#FEFEFE"/>
<path d="M5.12651 23.5562H3.07058V19.4578H5.12651V17.4019H1.02808V25.5987H5.12651V23.5562Z" fill="#FEFEFE"/>
</svg>
