<svg width="72" height="72" viewBox="0 0 72 72" fill="none" xmlns="http://www.w3.org/2000/svg">
<path d="M36.549 8.25C25.5 8.25 15.843 14.343 11.292 23.514C9.29306 27.373 8.24976 31.6555 8.24976 36.0015C8.24976 40.3475 9.29306 44.63 11.292 48.489C15.843 57.657 25.5 63.75 36.549 63.75C44.169 63.75 50.709 61.269 55.281 57.078C62.733 50.559 64.836 40.281 63.255 31.014C63.2253 30.8397 63.1349 30.6815 62.9999 30.5673C62.8649 30.4531 62.6938 30.3903 62.517 30.39H36.549C36.3501 30.39 36.1593 30.469 36.0187 30.6097C35.878 30.7503 35.799 30.9411 35.799 31.14V41.13C35.799 41.544 36.135 41.88 36.549 41.88H50.853C50.355 44.1 48.792 47.121 45.798 49.149L45.774 49.164C43.719 50.67 40.569 51.72 36.549 51.72C27.741 51.72 20.724 44.355 20.724 35.73C20.724 27.381 28.14 20.01 36.549 20.01C41.559 20.01 44.709 22.059 46.836 23.88C46.9782 24.0016 47.1608 24.0657 47.3479 24.0596C47.5349 24.0535 47.713 23.9777 47.847 23.847L55.581 16.287C55.6553 16.2145 55.7137 16.1274 55.7526 16.0311C55.7915 15.9348 55.81 15.8315 55.8069 15.7278C55.8038 15.624 55.7792 15.522 55.7346 15.4282C55.69 15.3344 55.6265 15.2509 55.548 15.183C50.721 11.019 44.196 8.25 36.549 8.25Z" fill="white"/>
</svg>
