<svg width="32" height="32" viewBox="0 0 32 32" fill="none" xmlns="http://www.w3.org/2000/svg">
<g clip-path="url(#clip0_207_477)">
<path d="M32 16.7695H30.48V19.8095H32V16.7695Z" fill="#FEFEFE"/>
<path d="M30.4802 24.3904V25.9104H28.9502V24.3904H25.9102V25.9104H27.4302V27.4304H28.9502V28.9604H32.0002V22.8604H28.9502V24.3904H30.4802Z" fill="#FEFEFE"/>
<path d="M30.4802 19.8096H28.9502V21.3396H30.4802V19.8096Z" fill="#FEFEFE"/>
<path d="M32.0002 30.4805H27.4302V32.0005H32.0002V30.4805Z" fill="#FEFEFE"/>
<path d="M30.4802 15.2402H27.4302V16.7702H30.4802V15.2402Z" fill="#FEFEFE"/>
<path d="M28.9502 6.09961H27.4302V13.7196H28.9502V6.09961Z" fill="#FEFEFE"/>
<path d="M28.9502 21.3398H25.9102V22.8598H28.9502V21.3398Z" fill="#FEFEFE"/>
<path d="M27.4302 16.7695H25.9102V18.2895H27.4302V16.7695Z" fill="#FEFEFE"/>
<path d="M27.4302 13.7197H25.9102V15.2397H27.4302V13.7197Z" fill="#FEFEFE"/>
<path d="M27.4299 4.58008H24.3799V6.10008H27.4299V4.58008Z" fill="#FEFEFE"/>
<path d="M25.9098 25.9102H22.8598V28.9602H21.3398V30.4802H16.7598V32.0002H22.8598V30.4802H24.3798V32.0002H25.9098V30.4802H27.4298V27.4302H25.9098V25.9102Z" fill="#FEFEFE"/>
<path d="M25.9099 22.8604H22.8599V24.3904H25.9099V22.8604Z" fill="#FEFEFE"/>
<path d="M25.9099 15.2402H24.3799V16.7702H25.9099V15.2402Z" fill="#FEFEFE"/>
<path d="M24.3798 16.7695H22.8598V18.2895H21.3398V19.8095H25.9098V18.2895H24.3798V16.7695Z" fill="#FEFEFE"/>
<path d="M24.3799 6.09961H22.8599V10.6696H24.3799V6.09961Z" fill="#FEFEFE"/>
<path d="M22.8598 24.3896H21.3398V25.9096H22.8598V24.3896Z" fill="#FEFEFE"/>
<path d="M22.8598 10.6699H21.3398V12.1899H22.8598V10.6699Z" fill="#FEFEFE"/>
<path d="M21.3401 25.9102H19.8101V28.9602H21.3401V25.9102Z" fill="#FEFEFE"/>
<path d="M21.3401 4.58008H19.8101V10.6701H21.3401V4.58008Z" fill="#FEFEFE"/>
<path d="M19.81 3.0498H18.29V4.5798H19.81V3.0498Z" fill="#FEFEFE"/>
<path d="M18.2899 28.9597V27.4297H12.1899V28.9597H13.7199V30.4797H16.7599V28.9597H18.2899Z" fill="#FEFEFE"/>
<path d="M19.8102 15.2402H15.2402V16.7702H19.8102V15.2402Z" fill="#FEFEFE"/>
<path d="M18.2898 1.53027H16.7598V3.05027H18.2898V1.53027Z" fill="#FEFEFE"/>
<path d="M16.7602 6.09961H15.2402V10.6696H16.7602V6.09961Z" fill="#FEFEFE"/>
<path d="M16.7602 0H13.7202V1.53H16.7602V0Z" fill="#FEFEFE"/>
<path d="M15.2402 16.7695H13.7202V18.2895H15.2402V16.7695Z" fill="#FEFEFE"/>
<path d="M15.2402 10.6699H13.7202V12.1899H15.2402V10.6699Z" fill="#FEFEFE"/>
<path d="M15.2402 4.58008H13.7202V6.10008H15.2402V4.58008Z" fill="#FEFEFE"/>
<path d="M13.7199 7.62012H12.1899V10.6701H13.7199V7.62012Z" fill="#FEFEFE"/>
<path d="M13.7199 1.53027H12.1899V4.58027H13.7199V1.53027Z" fill="#FEFEFE"/>
<path d="M9.14 30.4804V28.9604H7.62V24.3904H4.57V22.8604H1.53V24.3904H0V28.9604H3.05V30.4804H4.57V32.0004H6.1V30.4804H7.62V32.0004H13.72V30.4804H9.14ZM3.05 27.4304H1.53V25.9104H3.05V27.4304Z" fill="#FEFEFE"/>
<path d="M12.1899 6.09961H10.6699V7.61961H12.1899V6.09961Z" fill="#FEFEFE"/>
<path d="M10.6701 24.3896H9.14014V28.9596H10.6701V24.3896Z" fill="#FEFEFE"/>
<path d="M10.6701 10.6699H9.14014V15.2399H10.6701V10.6699Z" fill="#FEFEFE"/>
<path d="M10.6701 4.58008H9.14014V6.10008H10.6701V4.58008Z" fill="#FEFEFE"/>
<path d="M9.14012 22.8604H7.62012V24.3904H9.14012V22.8604Z" fill="#FEFEFE"/>
<path d="M9.14012 9.15039H7.62012V10.6704H9.14012V9.15039Z" fill="#FEFEFE"/>
<path d="M9.1401 3.0498H6.1001V4.5798H9.1401V3.0498Z" fill="#FEFEFE"/>
<path d="M7.61982 21.3398H4.56982V22.8598H7.61982V21.3398Z" fill="#FEFEFE"/>
<path d="M9.1401 15.2402H6.1001V16.7702H9.1401V15.2402Z" fill="#FEFEFE"/>
<path d="M7.6201 7.62012H6.1001V9.15012H7.6201V7.62012Z" fill="#FEFEFE"/>
<path d="M6.09982 12.1904H4.56982V15.2404H6.09982V12.1904Z" fill="#FEFEFE"/>
<path d="M6.09982 4.58008H4.56982V7.62008H6.09982V4.58008Z" fill="#FEFEFE"/>
<path d="M4.5698 19.8096H3.0498V21.3396H4.5698V19.8096Z" fill="#FEFEFE"/>
<path d="M4.56979 10.6699H1.52979V12.1899H4.56979V10.6699Z" fill="#FEFEFE"/>
<path d="M3.04979 18.29H1.52979V19.81H3.04979V18.29Z" fill="#FEFEFE"/>
<path d="M3.05 30.4805H0V32.0005H3.05V30.4805Z" fill="#FEFEFE"/>
<path d="M1.53 21.3398H0V22.8598H1.53V21.3398Z" fill="#FEFEFE"/>
<path d="M1.53 12.1904H0V18.2904H1.53V12.1904Z" fill="#FEFEFE"/>
</g>
<defs>
<clipPath id="clip0_207_477">
<rect width="32" height="32" fill="white"/>
</clipPath>
</defs>
</svg>
