<svg xmlns="http://www.w3.org/2000/svg" width="43" height="43" fill="none" viewBox="0 0 43 43"><g fill="#fefefe" clip-path="url(#a)"><path d="M40.944 4.099v10.239H26.62v2.043h2.042v2.042h2.043v-2.042h10.239V38.9H43V4.1zM40.944 38.901H38.9v2.056h2.043zM40.944 2.042H38.9v2.056h2.043zM38.902 40.958H4.084V43h34.817z"/><path d="M36.845 6.141h-2.042v4.099h2.042zM34.804 4.099h-4.099V6.14h4.099zM32.761 18.423h-2.056v10.24h2.056zM34.804 10.24h-4.099v2.042h4.099zM30.705 28.662h-2.043v2.056h2.043zM30.705 6.141h-2.043v4.099h2.043zM28.662 30.718H26.62v2.043h2.042zM16.38 20.479h-2.056v6.14h2.056v2.043h2.043v2.056h6.14v-2.056h2.057V26.62h2.042v-6.141h-2.043v-2.056h-2.055V16.38h-6.141v2.043H16.38zm4.085 0h4.099v4.098H22.52v-2.056h-2.056zM26.62 12.282H16.38v2.056h10.24zM26.62 32.76H16.38v2.043h10.24zM16.38 30.718h-2.056v2.043h2.056z"/><path d="M14.324 28.662h-2.042v2.056h2.042zM12.282 18.423h-2.056v10.24h2.056zM4.085 38.901H2.042v2.056h2.043z"/><path d="M2.043 16.38h2.042v2.043h6.14V16.38h2.057v2.043h2.042V16.38h2.056v-2.042h-2.056V2.043h24.578V0H4.085v2.043H2.043v2.055h2.042v10.24H2.043V4.098H0v34.804h2.043zm8.183-14.337h2.056v12.295h-2.056zm-4.085 0h2.042v12.295H6.141z"/></g><defs><clipPath id="a"><path fill="#fff" d="M0 0h43v43H0z"/></clipPath></defs></svg>