<svg width="39" height="43" viewBox="0 0 39 43" fill="none" xmlns="http://www.w3.org/2000/svg">
<path d="M28.6622 12.2817V14.3242H26.6062V16.3802H24.5637V18.4227H22.5212V22.5211H24.5637V24.5636H26.6062V26.6196H28.6622V28.6621H30.7047V22.5211H38.9016V18.4227H30.7047V12.2817H28.6622Z" fill="#FEFEFE"/>
<path d="M28.6621 32.7607H26.6062V36.8592H28.6621V32.7607Z" fill="#FEFEFE"/>
<path d="M28.6621 2.04248H26.6062V8.18342H28.6621V2.04248Z" fill="#FEFEFE"/>
<path d="M18.4229 40.9439V38.9014H26.6063V36.8589H18.4229V10.2393H16.3804V40.9439H18.4229Z" fill="#FEFEFE"/>
<path d="M16.3802 40.9438H10.2258V42.9998H16.3802V40.9438Z" fill="#FEFEFE"/>
<path d="M14.3245 22.5215H12.282V26.6199H14.3245V22.5215Z" fill="#FEFEFE"/>
<path d="M16.3804 8.18359H12.282V10.2395H16.3804V8.18359Z" fill="#FEFEFE"/>
<path d="M10.2259 38.9014H6.14087V40.9439H10.2259V38.9014Z" fill="#FEFEFE"/>
<path d="M12.2818 6.14111H8.18335V8.18361H12.2818V6.14111Z" fill="#FEFEFE"/>
<path d="M6.14092 36.8589H2.04248V38.9014H6.14092V36.8589Z" fill="#FEFEFE"/>
<path d="M8.1834 4.09863H4.08496V6.14113H8.1834V4.09863Z" fill="#FEFEFE"/>
<path d="M2.0425 0V2.0425H0V36.8591H2.0425V4.09844H4.085V2.0425H26.6063V0H2.0425Z" fill="#FEFEFE"/>
</svg>
