<svg width="43" height="43" viewBox="0 0 43 43" fill="none" xmlns="http://www.w3.org/2000/svg">
<g clip-path="url(#clip0_4_1462)">
<path d="M43 8.19678H40.9441V10.2393H43V8.19678Z" fill="#FEFEFE"/>
<path d="M38.9016 20.4788V22.5213H36.8591V24.5772H38.9016V26.6197H36.8591V28.6622H38.9016V30.7182H36.8591V32.7607H40.9441V16.3804H38.9016V18.4229H36.8591V20.4788H38.9016Z" fill="#FEFEFE"/>
<path d="M40.944 6.14111H34.8031V8.19705H40.944V6.14111Z" fill="#FEFEFE"/>
<path d="M34.8031 10.2393V12.2818H36.859V14.3377H38.9015V12.2818H40.944V10.2393H34.8031Z" fill="#FEFEFE"/>
<path d="M40.944 4.09844V2.0425H38.9015V0H36.859V2.0425H34.8031V4.09844H40.944Z" fill="#FEFEFE"/>
<path d="M36.8591 16.3804H32.7606V18.4229H36.8591V16.3804Z" fill="#FEFEFE"/>
<path d="M14.3243 20.4786H18.4228V22.5211H20.4787V24.5771H24.5637V26.6195H20.4787V28.6621H24.5637V30.718H20.4787V32.7605H24.5637V34.8164H20.4787V36.8589H24.5637V38.9014H28.6622V36.8589H32.7606V34.8164H36.859V32.7605H32.7606V30.718H36.859V28.6621H32.7606V26.6195H36.859V24.5771H32.7606V22.5211H36.859V20.4786H32.7606V18.4227H28.6622V16.3802H24.5637V14.3377H20.4787V12.2817H16.3803V14.3377H12.2818V16.3802H8.18341V18.4227H14.3243V20.4786Z" fill="#FEFEFE"/>
<path d="M34.8031 4.09863H32.7606V6.14113H34.8031V4.09863Z" fill="#FEFEFE"/>
<path d="M32.7606 10.2393H28.6622V12.2818H32.7606V10.2393Z" fill="#FEFEFE"/>
<path d="M28.6622 8.19678H24.5637V10.2393H28.6622V8.19678Z" fill="#FEFEFE"/>
<path d="M24.5638 10.2393H20.4788V12.2818H24.5638V10.2393Z" fill="#FEFEFE"/>
<path d="M24.5638 38.9014H20.4788V40.9573H24.5638V38.9014Z" fill="#FEFEFE"/>
<path d="M20.4787 6.14111H18.4228V8.19705H20.4787V6.14111Z" fill="#FEFEFE"/>
<path d="M18.4228 38.9015H20.4787V36.859H18.4228V34.8165H20.4787V32.7606H18.4228V30.7181H20.4787V28.6621H18.4228V26.6196H20.4787V24.5771H16.3803V26.6196H12.2819V28.6621H16.3803V30.7181H12.2819V32.7606H16.3803V34.8165H12.2819V36.859H16.3803V38.9015H12.2819V40.9575H16.3803V43H20.4787V40.9575H18.4228V38.9015Z" fill="#FEFEFE"/>
<path d="M18.4228 0H14.3244V2.0425H18.4228V0Z" fill="#FEFEFE"/>
<path d="M18.4228 8.19678H14.3244V10.2393H18.4228V8.19678Z" fill="#FEFEFE"/>
<path d="M18.4228 4.09863H14.3244V6.14113H18.4228V4.09863Z" fill="#FEFEFE"/>
<path d="M14.3244 2.04248H12.2819V4.09842H14.3244V2.04248Z" fill="#FEFEFE"/>
<path d="M12.2818 36.8589H8.18341V38.9014H12.2818V36.8589Z" fill="#FEFEFE"/>
<path d="M12.2818 24.5771H8.18341V26.6196H12.2818V24.5771Z" fill="#FEFEFE"/>
<path d="M12.2818 32.7607H8.18341V34.8167H12.2818V32.7607Z" fill="#FEFEFE"/>
<path d="M12.2818 28.6621H8.18341V30.718H12.2818V28.6621Z" fill="#FEFEFE"/>
<path d="M10.2393 8.19678H8.18341V10.2393H10.2393V8.19678Z" fill="#FEFEFE"/>
<path d="M8.18346 34.8164H4.08502V36.8589H8.18346V34.8164Z" fill="#FEFEFE"/>
<path d="M8.18346 30.7183H4.08502V32.7608H8.18346V30.7183Z" fill="#FEFEFE"/>
<path d="M8.18346 26.6196H4.08502V28.6621H8.18346V26.6196Z" fill="#FEFEFE"/>
<path d="M8.18346 22.5215H4.08502V24.5774H8.18346V22.5215Z" fill="#FEFEFE"/>
<path d="M8.18346 18.4229H4.08502V20.4788H8.18346V18.4229Z" fill="#FEFEFE"/>
<path d="M2.04248 10.2393V12.2818H4.08498V14.3377H6.14092V12.2818H8.18342V10.2393H2.04248Z" fill="#FEFEFE"/>
<path d="M8.18342 4.09844V2.0425H6.14092V0H4.08498V2.0425H2.04248V4.09844H8.18342Z" fill="#FEFEFE"/>
<path d="M4.085 32.7604H2.0425V30.7179H4.085V28.662H2.0425V26.6195H4.085V24.577H2.0425V22.521H4.085V20.4785H0V34.8163H4.085V32.7604Z" fill="#FEFEFE"/>
<path d="M8.18342 6.14111H2.04248V8.19705H8.18342V6.14111Z" fill="#FEFEFE"/>
<path d="M2.0425 4.09863H0V6.14113H2.0425V4.09863Z" fill="#FEFEFE"/>
</g>
<defs>
<clipPath id="clip0_4_1462">
<rect width="43" height="43" fill="white"/>
</clipPath>
</defs>
</svg>
